<svg width="1440" height="777" viewBox="0 0 1440 777" fill="none" xmlns="http://www.w3.org/2000/svg">
<path d="M0 1H1440V438H0V1ZM0 690L21.6 672C43.2 654 87.6 618 130.8 636C174 654 218.4 726 261.6 750C306 774 349.2 750 392.4 720C436.8 690 480 654 523.2 618C567.6 582 610.8 546 654 522C698.4 498 741.6 486 786 522C829.2 558 872.4 642 916.8 654C960 666 1003.2 606 1047.6 606C1090.8 606 1134 666 1178.4 690C1221.6 714 1266 702 1309.2 654C1352.4 606 1396.8 522 1418.4 480L1440 438H1418.4C1396.8 438 1352.4 438 1309.2 438C1266 438 1221.6 438 1178.4 438C1134 438 1090.8 438 1047.6 438C1003.2 438 960 438 916.8 438C872.4 438 829.2 438 786 438C741.6 438 698.4 438 654 438C610.8 438 567.6 438 523.2 438C480 438 436.8 438 392.4 438C349.2 438 306 438 261.6 438C218.4 438 174 438 130.8 438C87.6 438 43.2 438 21.6 438H0V690Z" fill="#0061FF"/>
<path fill-rule="evenodd" clip-rule="evenodd" d="M0 1H1440V438H0V1ZM0 690L21.6 672C43.2 654 87.6 618 130.8 636C174 654 218.4 726 261.6 750C306 774 349.2 750 392.4 720C436.8 690 480 654 523.2 618C567.6 582 610.8 546 654 522C698.4 498 741.6 486 786 522C829.2 558 872.4 642 916.8 654C960 666 1003.2 606 1047.6 606C1090.8 606 1134 666 1178.4 690C1221.6 714 1266 702 1309.2 654C1352.4 606 1396.8 522 1418.4 480L1440 438H1418.4C1396.8 438 1352.4 438 1309.2 438C1266 438 1221.6 438 1178.4 438C1134 438 1090.8 438 1047.6 438C1003.2 438 960 438 916.8 438C872.4 438 829.2 438 786 438C741.6 438 698.4 438 654 438C610.8 438 567.6 438 523.2 438C480 438 436.8 438 392.4 438C349.2 438 306 438 261.6 438C218.4 438 174 438 130.8 438C87.6 438 43.2 438 21.6 438H0V690Z" fill="#0061FF"/>
</svg>
